<svg id="Capa_1" enable-background="new 0 0 513.121 513.121" height="512" viewBox="0 0 513.121 513.121" width="512" xmlns="http://www.w3.org/2000/svg"><g><g><path d="m243.68 300.46-14.57-14.57-16.45-16.45c-5.59-5.59-11.89-10.02-18.62-13.29-25.81-12.59-57.83-8.15-79.28 13.29l-86.98 86.99c-27.04 27.04-27.04 70.87 0 97.9l31.01 31.01c27.03 27.04 70.86 27.04 97.9 0l86.99-86.98c27.03-27.039 27.03-70.87 0-97.9zm-38.78 72.131-73.98 73.98c-11.14 11.15-29.21 11.15-40.35 0l-24.02-24.02c-11.14-11.14-11.14-29.21 0-40.35l73.98-73.98c1.85-1.86 3.9-3.4 6.07-4.63 10.89-6.21 24.99-4.67 34.28 4.63l24.02 24.02c11.15 11.14 11.15 29.21 0 40.35z" fill="#ffd15b"/><path d="m229.11 285.891-35.28 35.28-12.95-12.95c-9.29-9.3-23.39-10.84-34.28-4.63l47.44-47.44c6.73 3.27 13.03 7.7 18.62 13.29z" fill="#ffc344"/><g fill="#ffc344"><path d="m66.548 422.552c-11.142-11.144-11.142-29.21.001-40.354l73.981-73.981c11.144-11.144 29.211-11.144 40.355 0l8.758 8.758s-.001-.001-.001-.001l-24.019-24.019c-11.144-11.144-29.211-11.144-40.355 0l-73.981 73.981c-11.144 11.144-11.144 29.211 0 40.354z"/><path d="m243.676 300.456-15.261-15.261c27.033 27.035 27.033 70.866-.002 97.9l-86.987 86.987c-27.035 27.035-70.867 27.035-97.902 0l-15.751-15.75c.001 0 .001.001.002.002l31.012 31.011c27.035 27.035 70.867 27.035 97.902 0l86.987-86.987c27.035-27.035 27.035-70.867 0-97.902z"/></g><path d="m485.34 58.791-31.01-31.01c-27.03-27.04-70.86-27.04-97.9 0l-86.99 86.98c-21.44 21.45-25.88 53.47-13.29 79.28 3.27 6.73 7.7 13.03 13.29 18.62l31.02 31.02c27.03 27.03 70.86 27.03 97.9 0l86.98-86.99c27.04-27.041 27.04-70.87 0-97.9zm-38.77 72.129-73.98 73.98c-11.14 11.15-29.21 11.15-40.35 0l-11.07-11.07-12.95-12.95c-9.3-9.29-10.84-23.39-4.63-34.28 1.23-2.17 2.77-4.22 4.63-6.07l73.98-73.98c11.14-11.15 29.21-11.15 40.35 0l24.02 24.02c11.15 11.14 11.15 29.211 0 40.35z" fill="#ffd15b"/><path d="m321.17 193.831-35.28 35.28-16.45-16.45c-5.59-5.59-10.02-11.89-13.29-18.62l47.44-47.44c-6.21 10.89-4.67 24.99 4.63 34.28z" fill="#ffc344"/><g fill="#ffc344"><path d="m485.344 58.788-15.263-15.262c27.035 27.035 27.035 70.867 0 97.902l-86.987 86.987c-27.035 27.035-70.867 27.035-97.902 0l-15.751-15.751c.001.001.001.001.002.002l31.012 31.011c27.035 27.035 70.867 27.035 97.902 0l86.987-86.987c27.035-27.035 27.035-70.867 0-97.902z"/><path d="m308.216 180.884c-11.142-11.144-11.142-29.21.001-40.354l73.981-73.981c11.144-11.144 29.211-11.144 40.355 0l8.758 8.758s-.001-.001-.001-.001l-24.019-24.019c-11.144-11.144-29.211-11.144-40.355 0l-73.981 73.981c-11.144 11.144-11.144 29.211 0 40.354z"/></g><path d="m167.695 352.008-6.583-6.583c-7.13-7.13-7.13-18.691 0-25.821l159.858-159.857c7.13-7.13 18.691-7.13 25.821 0l6.583 6.583c7.13 7.13 7.13 18.691 0 25.821l-159.858 159.857c-7.13 7.13-18.691 7.13-25.821 0z" fill="#ffd15b"/><path d="m353.374 166.33-6.583-6.583c-1.525-1.525-3.26-2.704-5.104-3.576 3.208 6.776 2.029 15.112-3.576 20.717l-159.858 159.858c-5.605 5.605-13.941 6.784-20.717 3.576.873 1.844 2.051 3.579 3.576 5.104l6.583 6.583c7.13 7.13 18.691 7.13 25.821 0l159.858-159.859c7.13-7.13 7.13-18.69 0-25.82z" fill="#ffc344"/></g><path d="m490.644 53.487-31.01-31.01c-14.489-14.494-33.756-22.477-54.25-22.477s-39.763 7.982-54.257 22.477l-86.992 86.981c-18.84 18.848-26.5 45.615-20.489 71.604.933 4.035 4.961 6.554 8.997 5.616 4.036-.933 6.551-4.961 5.617-8.997-4.837-20.914 1.325-42.453 16.482-57.616l86.991-86.98c11.662-11.662 27.164-18.085 43.651-18.085 16.486 0 31.985 6.422 43.642 18.084l31.012 31.012c11.661 11.655 18.083 27.154 18.083 43.641s-6.423 31.989-18.084 43.651l-86.979 86.988c-21.917 21.911-56.727 23.811-80.868 5.565l26.094-26.094c4.504 1.915 9.294 2.878 14.075 2.878 9.332 0 18.607-3.587 25.535-10.521l73.977-73.978c6.812-6.805 10.563-15.854 10.563-25.481 0-9.626-3.751-18.676-10.56-25.479l-24.018-24.016c-6.805-6.812-15.854-10.563-25.48-10.563-9.627 0-18.677 3.751-25.479 10.56l-73.977 73.978c-10.491 10.48-13.322 26.331-7.663 39.628l-83.618 83.618c-13.705-10.998-30.667-16.923-48.429-16.803-20.301.133-39.391 8.112-53.753 22.47l-86.979 86.989c-14.496 14.495-22.478 33.764-22.478 54.258s7.982 39.761 22.477 54.248l31.009 31.011c14.489 14.494 33.756 22.478 54.25 22.478s39.763-7.982 54.257-22.477l86.991-86.981c14.356-14.361 22.335-33.451 22.468-53.752.117-17.796-5.806-34.732-16.803-48.431l46.833-46.833c13.566 10.893 30.309 16.807 47.916 16.806.17 0 .34 0 .51-.001 20.301-.132 39.391-8.11 53.754-22.469l86.98-86.989c14.494-14.495 22.477-33.764 22.477-54.258s-7.982-39.761-22.475-54.25zm-194.859 185.643c-.005.006-.01.012-.015.018l-107.558 107.557c-2.032 2.032-4.733 3.15-7.606 3.15s-5.575-1.118-7.607-3.15c0-.001 0-.001 0-.001l-6.582-6.581c-4.195-4.195-4.195-11.021 0-15.215l143.273-143.274c.043-.042.085-.084.127-.127l16.457-16.457c2.031-2.032 4.733-3.151 7.606-3.151 2.874 0 5.575 1.12 7.607 3.152l6.582 6.582c2.032 2.032 3.151 4.733 3.151 7.607 0 2.873-1.118 5.575-3.151 7.606l-16.462 16.462c-.039.039-.078.077-.116.116l-35.677 35.677c-.009.011-.02.019-.029.029zm17.739-93.296 73.981-73.982c3.972-3.975 9.252-6.164 14.87-6.164 5.617 0 10.897 2.189 14.871 6.167l24.022 24.021c3.975 3.972 6.164 9.252 6.164 14.869 0 5.618-2.189 10.898-6.167 14.872l-73.98 73.983c-4.514 4.518-10.731 6.587-16.796 6.042l8.188-8.188c4.866-4.865 7.545-11.333 7.545-18.214s-2.679-13.349-7.544-18.215l-6.582-6.582c-4.866-4.865-11.334-7.545-18.215-7.545s-13.349 2.68-18.214 7.545l-8.188 8.188c-.544-6.065 1.525-12.282 6.045-16.797zm-75.147 247.223-86.99 86.98c-11.661 11.661-27.164 18.084-43.65 18.084s-31.986-6.422-43.643-18.083l-31.011-31.013c-11.661-11.655-18.083-27.154-18.083-43.64 0-16.487 6.422-31.989 18.083-43.651l86.979-86.988c21.919-21.911 56.731-23.811 80.872-5.569l-26.077 26.077c-13.299-5.657-29.153-2.823-39.63 7.664l-73.98 73.98c-14.048 14.049-14.048 36.907 0 50.957l24.02 24.019c6.804 6.806 15.853 10.553 25.479 10.553 9.625 0 18.674-3.748 25.478-10.552l4.538-4.537c2.929-2.929 2.929-7.678 0-10.606-2.929-2.93-7.678-2.929-10.607-.001l-4.538 4.538c-3.971 3.971-9.252 6.158-14.871 6.158s-10.9-2.188-14.872-6.159l-24.02-24.019c-8.2-8.201-8.2-21.544 0-29.744l73.983-73.982c4.513-4.517 10.73-6.586 16.797-6.044l-6.825 6.825c-10.042 10.043-10.042 26.384 0 36.428l6.583 6.582v-.001c4.865 4.866 11.334 7.545 18.214 7.545s13.349-2.679 18.213-7.544l6.825-6.825c.542 6.067-1.528 12.286-6.047 16.8l-44.12 44.12c-2.929 2.93-2.929 7.678 0 10.607 1.464 1.464 3.384 2.196 5.303 2.196s3.839-.732 5.303-2.196l44.118-44.118c10.49-10.479 13.323-26.333 7.667-39.634l26.077-26.077c18.242 24.139 16.341 58.953-5.568 80.87z"/></g></svg>